# xmcd CD database file
# Copyright (C) 1993-1998 Ti Kan
#
# Track frame offsets:
#	150
#	30152
#	57202
#	60337
#	78517
#	82147
#	94250
#	96962
#	107355
#	118877
#	122130
#	140580
#	147050
#	149902
#	164625
#	177065
#	180255
#	206002
#	207752
#	223897
#	228505
#
# Disc length: 3079 seconds
#
# Revision: 1
# Processed by: cddbd v1.4b41PL1 Copyright (c) Steve Scherf et al.
# Submitted via: CDValet v3.31 - Copyright (c) 1997 Greg Leichner
#
DISCID=330c0515
DTITLE=Various Artist - X-Mix Issue 24, 1995
DYEAR=1900
DGENRE=
TTITLE0=1994 Rewind House Medley (Pt. 2)
TTITLE1=
TTITLE2=
TTITLE3=Body Rock
TTITLE4=
TTITLE5=
TTITLE6=
TTITLE7=Short Dick Man
TTITLE8=
TTITLE9=
TTITLE10=Rhythm Of The Night
TTITLE11=
TTITLE12=
TTITLE13=Dreamer
TTITLE14=
TTITLE15=
TTITLE16=Here Comes The Hotstepper
TTITLE17=
TTITLE18=Din Da Da
TTITLE19=
TTITLE20=
EXTD=
EXTT0=
EXTT1=
EXTT2=
EXTT3=
EXTT4=
EXTT5=
EXTT6=
EXTT7=
EXTT8=
EXTT9=
EXTT10=
EXTT11=
EXTT12=
EXTT13=
EXTT14=
EXTT15=
EXTT16=
EXTT17=
EXTT18=
EXTT19=
EXTT20=
PLAYORDER=
